<svg width="24" height="24" viewBox="0 0 24 24" fill="none" xmlns="http://www.w3.org/2000/svg">
<path fill-rule="evenodd" clip-rule="evenodd" d="M11.7539 1.99969C14.2282 1.99969 16.2456 4.00256 16.2726 6.47358L16.4918 6.47459C19.2538 6.47459 21.4998 8.71959 21.4998 11.4796V16.9956C21.4998 19.7546 19.2538 21.9996 16.4918 21.9996H7.00776C4.24676 21.9996 1.99976 19.7546 1.99976 16.9956V11.4796C1.99976 8.71959 4.24676 6.47459 7.00776 6.47459L7.21176 6.47369L7.2181 6.27922C7.2809 5.14476 7.74812 4.10403 8.54986 3.31069C9.40786 2.45969 10.5599 2.03469 11.7539 1.99969ZM16.4918 7.97459L16.2728 7.97369L16.2729 9.55569C16.2729 9.96969 15.9369 10.3057 15.5229 10.3057C15.1089 10.3057 14.7729 9.96969 14.7729 9.55569L14.7728 7.97369H8.71076L8.71086 9.55569C8.71086 9.96969 8.37486 10.3057 7.96086 10.3057C7.54686 10.3057 7.21086 9.96969 7.21086 9.55569L7.21076 7.97369L7.00776 7.97459C5.07376 7.97459 3.49976 9.54659 3.49976 11.4796V16.9956C3.49976 18.9276 5.07376 20.4996 7.00776 20.4996H16.4918C18.4258 20.4996 19.9998 18.9276 19.9998 16.9956V11.4796C19.9998 9.54659 18.4258 7.97459 16.4918 7.97459ZM11.7509 3.49969C10.9399 3.52769 10.1799 3.80769 9.60586 4.37569C9.04019 4.93644 8.72314 5.67976 8.71119 6.4736L14.7708 6.47369L14.7677 6.34632C14.6757 4.7615 13.3583 3.49969 11.7509 3.49969Z" fill="#8D8598"/>
</svg>
