<svg width="24" height="24" viewBox="0 0 24 24" fill="none" xmlns="http://www.w3.org/2000/svg">
<path fill-rule="evenodd" clip-rule="evenodd" d="M10.1472 5.2035C10.5802 5.5435 10.8292 6.0505 10.8292 6.5945C10.8292 10.9795 10.9772 12.1595 11.5822 12.6085C11.9792 12.9015 12.5232 12.8985 14.3562 12.8475C15.2082 12.8225 16.2992 12.7905 17.7282 12.7905C18.2982 12.7905 18.8352 13.0345 19.1992 13.4595C19.5372 13.8545 19.6852 14.3705 19.6072 14.8785C18.9392 19.2035 15.2592 22.3445 10.8572 22.3445C5.97324 22.3445 2.00024 18.3715 2.00024 13.4885C2.00024 9.6165 4.92824 5.7445 8.52724 4.8585C9.08924 4.7215 9.69324 4.8495 10.1472 5.2035ZM8.98224 6.3035C8.95024 6.3035 8.91824 6.3075 8.88624 6.3155C5.91624 7.0465 3.50024 10.2645 3.50024 13.4885C3.50024 17.5445 6.80024 20.8445 10.8572 20.8445C14.5142 20.8445 17.5702 18.2395 18.1242 14.6495C18.1282 14.6195 18.1422 14.5325 18.0602 14.4355C17.9822 14.3445 17.8582 14.2905 17.7282 14.2905C16.3172 14.2905 15.2402 14.3225 14.3992 14.3465C12.3632 14.4075 11.5212 14.4305 10.6892 13.8135C9.49955 12.9321 9.34313 11.4504 9.33022 7.29254L9.32924 6.5945C9.32924 6.5105 9.29324 6.4405 9.22124 6.3845C9.15424 6.3315 9.06924 6.3035 8.98224 6.3035ZM20.0506 3.7338C21.8086 5.4908 22.9246 7.7998 22.8926 9.6168C22.8806 10.3258 22.3656 10.9178 21.6696 11.0228C20.3116 11.2278 18.7216 11.2898 17.3146 11.2898C16.0046 11.2898 14.8516 11.2368 14.1886 11.1988C13.3546 11.1498 12.6906 10.4848 12.6426 9.6508C12.5646 8.3288 12.3956 4.9698 12.5156 2.3718C12.5486 1.6168 13.1586 1.0158 13.9046 1.0028C16.0416 0.940803 18.2466 1.9328 20.0506 3.7338ZM14.0326 2.5018H14.0106C13.9006 5.0208 14.0636 8.2748 14.1396 9.5638C14.1436 9.6408 14.1996 9.6968 14.2756 9.7008C15.3036 9.7598 18.8456 9.9238 21.3927 9.5488C21.3986 8.1448 20.4376 6.2408 18.9906 4.7948C17.5066 3.3128 15.7506 2.5018 14.0326 2.5018Z" fill="#8D8598"/>
</svg>
