<svg width="20" height="20" viewBox="0 0 20 20" fill="none" xmlns="http://www.w3.org/2000/svg">
<path d="M7.21375 4.79669C7.06297 4.94747 6.97061 5.15699 6.97091 5.3871L6.97091 5.48838C6.97091 5.94917 7.34394 6.32221 7.80415 6.32162L12.3571 6.32162L4.65532 14.0234C4.33005 14.3486 4.33005 14.8766 4.65532 15.2019C4.98059 15.5272 5.50856 15.5272 5.83383 15.2019L13.5356 7.50013V12.0531C13.5356 12.5138 13.9086 12.8869 14.3688 12.8863H14.4701C14.9309 12.8863 15.3039 12.5133 15.3034 12.0531V5.3871C15.3034 4.9263 14.9303 4.55326 14.4701 4.55385L7.80415 4.55385C7.57375 4.55385 7.36452 4.64592 7.21375 4.79669Z" fill="#34C759"/>
</svg>
